<svg xmlns="http://www.w3.org/2000/svg" viewBox="0 0 900 620" role="img" aria-labelledby="title desc">
  <title id="title">柚木保养图占位</title><desc id="desc">模拟手工擦拭柚木表面的柔和光影。</desc>
  <defs><linearGradient id="wood" x1="0" y1="0" x2="1" y2="1"><stop stop-color="#b9783b"/><stop offset=".5" stop-color="#7a4725"/><stop offset="1" stop-color="#2b170d"/></linearGradient></defs>
  <rect width="900" height="620" fill="url(#wood)"/>
  <path d="M0 420c210-82 420 28 900-104v304H0Z" fill="#1c1009" opacity=".56"/>
  <path d="M138 190c180 46 364 30 642-72" stroke="#e3bd78" stroke-width="8" opacity=".22" fill="none"/>
  <path d="M520 180c88 0 158 52 158 116 0 74-84 124-194 108-78-12-122-54-116-112 6-56 58-112 152-112Z" fill="#f2dcc5" opacity=".72"/>
  <path d="M330 330h230c38 0 70 30 70 68H286c0-38 20-68 44-68Z" fill="#fff2df" opacity=".62"/>
</svg>
