<svg xmlns="http://www.w3.org/2000/svg" viewBox="0 0 320 320" role="img" aria-labelledby="title desc">
  <title id="title">二维码占位图</title><desc id="desc">用于没有真实二维码时的规整占位。</desc>
  <rect width="320" height="320" fill="#fffaf2"/>
  <g fill="#21170f">
    <rect x="28" y="28" width="78" height="78"/><rect x="46" y="46" width="42" height="42" fill="#fffaf2"/><rect x="58" y="58" width="18" height="18"/>
    <rect x="214" y="28" width="78" height="78"/><rect x="232" y="46" width="42" height="42" fill="#fffaf2"/><rect x="244" y="58" width="18" height="18"/>
    <rect x="28" y="214" width="78" height="78"/><rect x="46" y="232" width="42" height="42" fill="#fffaf2"/><rect x="58" y="244" width="18" height="18"/>
    <rect x="136" y="34" width="16" height="16"/><rect x="164" y="34" width="16" height="16"/><rect x="136" y="62" width="44" height="16"/><rect x="122" y="96" width="18" height="18"/><rect x="160" y="96" width="54" height="18"/>
    <rect x="124" y="136" width="18" height="18"/><rect x="156" y="132" width="18" height="18"/><rect x="190" y="136" width="52" height="18"/><rect x="260" y="136" width="18" height="18"/>
    <rect x="126" y="176" width="50" height="18"/><rect x="204" y="174" width="18" height="18"/><rect x="246" y="176" width="46" height="18"/>
    <rect x="136" y="220" width="18" height="18"/><rect x="176" y="216" width="18" height="18"/><rect x="216" y="216" width="18" height="18"/><rect x="258" y="216" width="34" height="18"/>
    <rect x="124" y="258" width="46" height="18"/><rect x="190" y="252" width="18" height="18"/><rect x="232" y="252" width="60" height="18"/><rect x="148" y="292" width="18" height="18"/><rect x="204" y="288" width="18" height="18"/><rect x="260" y="288" width="18" height="18"/>
  </g>
</svg>
